<?xml version="1.0" ?><svg id="Layer_1" style="enable-background:new 0 0 512 512;" version="1.1" viewBox="0 0 512 512" xml:space="preserve" xmlns="http://www.w3.org/2000/svg" xmlns:xlink="http://www.w3.org/1999/xlink"><g><path style="fill:#000066;" d="M452.8,192.6c0-31.9-12.4-61.9-35-84.5s-52.6-35-84.5-35c-28.7,0-55.8,10-77.4,28.5C209,61.7,138.3,63.9,94.1,108.1   c-23.4,23.4-35,54.1-34.9,84.7H50v20h11c4,23.5,15.1,46.1,33.2,64.2L256,438.9l69.9-69.9l-14.1-14.1L256,410.6L108.3,262.9   c-14.2-14.2-23.2-31.7-27-50h38.2l22.6-36.3l54,92.7l39.3-49.7l35.6,51.2l48.6-92.5l47.9,93.7l36.1-59.3h27.1   c-3.9,18.8-13.2,36.1-27.1,50l-77.8,77.8l14.1,14.1l77.8-77.8c17.7-17.7,29.2-40,33.3-64.2h11v-20L452.8,192.6   C452.8,192.8,452.8,192.7,452.8,192.6z M432.8,192.8h-40.4L369,231.1l-49.2-96.2l-51.2,97.5l-32.2-46.3L198.5,234l-56-96l-34.3,55   h-29c-0.1-25.6,9.6-51.1,29.1-70.6c18.8-18.8,43.8-29.1,70.3-29.1c26.6,0,51.5,10.3,70.3,29.1l7.1,7.1l7.1-7.1   c18.8-18.8,43.8-29.1,70.3-29.1s51.5,10.3,70.3,29.1S432.8,166.2,432.8,192.8C432.8,192.7,432.8,192.8,432.8,192.8z"/><rect height="20" width="20" x="482" y="192.8"/><rect height="20" width="20" x="10" y="192.8"/></g></svg>